<mxfile host="app.diagrams.net" agent="Mozilla/5.0 (Windows NT 10.0; Win64; x64) AppleWebKit/537.36 (KHTML, like Gecko) Chrome/127.0.0.0 Safari/537.36" version="24.7.6">
  <diagram name="Page-1" id="312jGHUMvmNCfDpPOz5X">
    <mxGraphModel dx="782" dy="573" grid="1" gridSize="10" guides="1" tooltips="1" connect="1" arrows="1" fold="1" page="1" pageScale="1" pageWidth="850" pageHeight="1100" math="0" shadow="0">
      <root>
        <mxCell id="0" />
        <mxCell id="1" parent="0" />
        <mxCell id="oXbb7-sURBz3it6mc6My-7" value="" style="edgeStyle=orthogonalEdgeStyle;rounded=0;orthogonalLoop=1;jettySize=auto;html=1;" edge="1" parent="1" source="oXbb7-sURBz3it6mc6My-1" target="oXbb7-sURBz3it6mc6My-6">
          <mxGeometry relative="1" as="geometry" />
        </mxCell>
        <mxCell id="oXbb7-sURBz3it6mc6My-1" value="UI" style="rounded=0;whiteSpace=wrap;html=1;" vertex="1" parent="1">
          <mxGeometry x="200" y="170" width="120" height="60" as="geometry" />
        </mxCell>
        <mxCell id="oXbb7-sURBz3it6mc6My-2" value="Backend" style="rounded=0;whiteSpace=wrap;html=1;" vertex="1" parent="1">
          <mxGeometry x="520" y="170" width="120" height="60" as="geometry" />
        </mxCell>
        <mxCell id="oXbb7-sURBz3it6mc6My-3" value="" style="endArrow=none;html=1;rounded=0;" edge="1" parent="1">
          <mxGeometry width="50" height="50" relative="1" as="geometry">
            <mxPoint x="420" y="680" as="sourcePoint" />
            <mxPoint x="420" y="160" as="targetPoint" />
          </mxGeometry>
        </mxCell>
        <mxCell id="oXbb7-sURBz3it6mc6My-6" value="Take image" style="rounded=1;whiteSpace=wrap;html=1;" vertex="1" parent="1">
          <mxGeometry x="200" y="300" width="120" height="60" as="geometry" />
        </mxCell>
        <mxCell id="oXbb7-sURBz3it6mc6My-14" value="" style="edgeStyle=orthogonalEdgeStyle;rounded=0;orthogonalLoop=1;jettySize=auto;html=1;" edge="1" parent="1" source="oXbb7-sURBz3it6mc6My-8" target="oXbb7-sURBz3it6mc6My-13">
          <mxGeometry relative="1" as="geometry" />
        </mxCell>
        <mxCell id="oXbb7-sURBz3it6mc6My-8" value="Model recogn" style="rounded=1;whiteSpace=wrap;html=1;" vertex="1" parent="1">
          <mxGeometry x="520" y="390" width="120" height="60" as="geometry" />
        </mxCell>
        <mxCell id="oXbb7-sURBz3it6mc6My-12" style="edgeStyle=orthogonalEdgeStyle;rounded=0;orthogonalLoop=1;jettySize=auto;html=1;entryX=0;entryY=0.5;entryDx=0;entryDy=0;" edge="1" parent="1" source="oXbb7-sURBz3it6mc6My-9" target="oXbb7-sURBz3it6mc6My-8">
          <mxGeometry relative="1" as="geometry" />
        </mxCell>
        <mxCell id="oXbb7-sURBz3it6mc6My-9" value="Photo" style="rounded=0;whiteSpace=wrap;html=1;" vertex="1" parent="1">
          <mxGeometry x="200" y="390" width="120" height="60" as="geometry" />
        </mxCell>
        <mxCell id="oXbb7-sURBz3it6mc6My-16" style="edgeStyle=orthogonalEdgeStyle;rounded=0;orthogonalLoop=1;jettySize=auto;html=1;entryX=0.5;entryY=0;entryDx=0;entryDy=0;" edge="1" parent="1" source="oXbb7-sURBz3it6mc6My-13" target="oXbb7-sURBz3it6mc6My-15">
          <mxGeometry relative="1" as="geometry" />
        </mxCell>
        <mxCell id="oXbb7-sURBz3it6mc6My-13" value="Food name" style="rounded=1;whiteSpace=wrap;html=1;" vertex="1" parent="1">
          <mxGeometry x="520" y="500" width="120" height="60" as="geometry" />
        </mxCell>
        <mxCell id="oXbb7-sURBz3it6mc6My-15" value="Show infomation about the food" style="rounded=0;whiteSpace=wrap;html=1;" vertex="1" parent="1">
          <mxGeometry x="200" y="580" width="120" height="60" as="geometry" />
        </mxCell>
      </root>
    </mxGraphModel>
  </diagram>
</mxfile>
